PathFileType	3	(X/Y/Z)	random_1__fused_aligned.trc
DataRate	CameraRate	NumFrames	NumMarkers	Units	OrigDataRate	OrigDataStartFrame	OrigNumFrames
100.0	100.0	13	19	mm	100.0	634	1870
Frame#	Time	pelvis			neck			head			hip_left			hip_right			knee_left			knee_right			ankle_left			ankle_right			heel_left			heel_right			toe_left			toe_right			shoulder_left			shoulder_right			elbow_left			elbow_right			wrist_left			wrist_right			
		X1	Y1	Z1	X2	Y2	Z2	X3	Y3	Z3	X4	Y4	Z4	X5	Y5	Z5	X6	Y6	Z6	X7	Y7	Z7	X8	Y8	Z8	X9	Y9	Z9	X10	Y10	Z10	X11	Y11	Z11	X12	Y12	Z12	X13	Y13	Z13	X14	Y14	Z14	X15	Y15	Z15	X16	Y16	Z16	X17	Y17	Z17	X18	Y18	Z18	X19	Y19	Z19	
634	6.33000	184.819856	951.871141	-42.106574	160.723603	1545.305775	-19.476185	93.799531	1675.415142	-93.711805	123.749830	951.049590	4.655681	245.889835	952.692699	-88.868868	0.584375	527.152494	-45.846141	131.714203	544.365162	-222.308588	70.895461	144.868874	98.141766	168.978314	133.619863	-174.395131	96.461275	101.011694	130.695654	194.164840	85.849376	-148.971325	-48.266823	83.417021	-32.072065	24.616286	71.511507	-288.108712	17.467328	1504.536505	64.433613	313.165680	1533.248600	-93.004533	-70.906249	1482.003416	-200.589222	173.487783	1540.602927	-322.373503	21.467610	1708.173523	-197.728675	94.328082	1733.517233	-182.398506
635	6.34000	187.836317	951.634710	-43.392220	162.903680	1545.043169	-21.328779	95.313682	1674.691402	-95.592845	126.890709	950.737030	3.581428	248.781892	952.532395	-90.365896	2.698318	526.917971	-47.091787	133.573212	543.634274	-221.700877	76.062216	146.228994	99.022086	170.847080	132.730894	-173.660835	101.995110	102.860171	131.786280	196.216486	84.910947	-148.506929	-42.386915	82.915148	-30.340610	25.272495	70.829337	-285.818587	20.046613	1503.994505	62.769579	315.399603	1533.388976	-94.919275	-67.077643	1482.918817	-201.683254	177.001584	1542.300681	-324.077024	24.627676	1710.338175	-199.510830	97.441503	1734.562182	-183.728704
636	6.35000	190.852778	951.398280	-44.677866	165.083756	1544.780564	-23.181373	96.827833	1673.967661	-97.473885	130.031588	950.424470	2.507176	251.673949	952.372092	-91.862924	4.812261	526.683448	-48.337433	135.432221	542.903386	-221.093166	81.228970	147.589113	99.902406	172.715847	131.841925	-172.926538	107.528945	104.708647	132.876906	198.268131	83.972518	-148.042532	-36.507007	82.413275	-28.609155	25.928703	70.147167	-283.528463	22.625899	1503.452505	61.105545	317.633525	1533.529353	-96.834016	-63.249037	1483.834218	-202.777287	180.515385	1543.998436	-325.780544	27.787743	1712.502828	-201.292985	100.554924	1735.607131	-185.058903
637	6.36000	193.869239	951.161849	-45.963511	167.263832	1544.517959	-25.033968	98.341985	1673.243920	-99.354925	133.172467	950.111910	1.432923	254.566006	952.211789	-93.359952	6.926203	526.448925	-49.583080	137.291230	542.172499	-220.485455	86.395725	148.949233	100.782726	174.584613	130.952957	-172.192242	113.062781	106.557124	133.967531	200.319777	83.034089	-147.578136	-30.627099	81.911402	-26.877701	26.584912	69.464997	-281.238339	25.205184	1502.910505	59.441511	319.867448	1533.669730	-98.748757	-59.420431	1484.749618	-203.871320	184.029186	1545.696190	-327.484065	30.947810	1714.667480	-203.075140	103.668345	1736.652080	-186.389101
638	6.37000	194.908552	950.883216	-47.235016	167.573709	1544.339962	-26.961413	97.850024	1672.569605	-101.143256	134.628072	949.783465	0.716281	255.189027	951.982969	-95.186319	7.490229	526.184539	-50.207649	136.124085	541.693770	-220.310105	91.496885	150.262512	100.659328	173.865660	130.533528	-171.141883	118.851921	108.409485	133.761777	199.821188	82.657779	-146.621796	-25.393888	80.982521	-25.762274	24.839824	68.781091	-279.084380	26.449632	1502.635687	58.370175	319.333930	1533.992895	-101.426532	-58.490967	1484.954223	-203.672871	183.371506	1546.613083	-328.547932	31.755744	1714.741986	-205.716382	101.974277	1736.180576	-186.390000
639	6.38000	195.947865	950.604582	-48.506520	167.883586	1544.161966	-28.888858	97.358063	1671.895290	-102.931587	136.083678	949.455021	-0.000360	255.812048	951.754150	-97.012686	8.054254	525.920153	-50.832218	134.956939	541.215042	-220.134756	96.598046	151.575791	100.535931	173.146707	130.114099	-170.091523	124.641061	110.261845	133.556022	199.322599	82.281470	-145.665456	-20.160678	80.053640	-24.646847	23.094737	68.097184	-276.930421	27.694079	1502.360870	57.298840	318.800412	1534.316060	-104.104308	-57.561503	1485.158829	-203.474423	182.713825	1547.529977	-329.611798	32.563679	1714.816493	-208.357623	100.280210	1735.709072	-186.390899
640	6.39000	196.987178	950.325949	-49.778025	168.193462	1543.983969	-30.816303	96.866101	1671.220975	-104.719918	137.539283	949.126576	-0.717002	256.435069	951.525330	-98.839053	8.618280	525.655767	-51.456787	133.789794	540.736314	-219.959407	101.699207	152.889071	100.412533	172.427754	129.694671	-169.041164	130.430201	112.114206	133.350268	198.824011	81.905160	-144.709115	-14.927468	79.124759	-23.531420	21.349649	67.413278	-274.776463	28.938527	1502.086052	56.227504	318.266894	1534.639226	-106.782083	-56.632039	1485.363434	-203.275974	182.056145	1548.446871	-330.675665	33.371613	1714.891000	-210.998865	98.586142	1735.237568	-186.391799
641	6.40000	198.026491	950.047315	-51.049529	168.503339	1543.805972	-32.743749	96.374140	1670.546661	-106.508249	138.994888	948.798132	-1.433644	257.058090	951.296510	-100.665420	9.182306	525.391381	-52.081356	132.622648	540.257585	-219.784058	106.800367	154.202350	100.289135	171.708800	129.275242	-167.990804	136.219341	113.966567	133.144513	198.325422	81.528850	-143.752775	-9.694257	78.195878	-22.415993	19.604561	66.729372	-272.622504	30.182974	1501.811235	55.156169	317.733377	1534.962391	-109.459858	-55.702575	1485.568039	-203.077526	181.398465	1549.363764	-331.739531	34.179548	1714.965507	-213.640106	96.892074	1734.766064	-186.392698
642	6.41000	199.065804	949.768682	-52.321033	168.813216	1543.627976	-34.671194	95.882179	1669.872346	-108.296580	140.450493	948.469687	-2.150286	257.681111	951.067691	-102.491787	9.746331	525.126995	-52.705926	131.455503	539.778857	-219.608708	111.901528	155.515629	100.165738	170.989847	128.855814	-166.940445	142.008481	115.818927	132.938759	197.826833	81.152540	-142.796434	-4.461047	77.266997	-21.300566	17.859473	66.045466	-270.468546	31.427422	1501.536418	54.084833	317.199859	1535.285557	-112.137633	-54.773111	1485.772645	-202.879077	180.740785	1550.280658	-332.803398	34.987482	1715.040013	-216.281348	95.198006	1734.294561	-186.393597
643	6.42000	200.105117	949.490048	-53.592538	169.123093	1543.449979	-36.598639	95.390218	1669.198031	-110.084911	141.906098	948.141243	-2.866928	258.304132	950.838871	-104.318154	10.310357	524.862609	-53.330495	130.288357	539.300129	-219.433359	117.002689	156.828908	100.042340	170.270894	128.436385	-165.890085	147.797621	117.671288	132.733004	197.328244	80.776231	-141.840094	0.772163	76.338116	-20.185139	16.114386	65.361560	-268.314587	32.671870	1501.261600	53.013498	316.666341	1535.608722	-114.815408	-53.843647	1485.977250	-202.680628	180.083105	1551.197551	-333.867264	35.795417	1715.114520	-218.922589	93.503939	1733.823057	-186.394496
644	6.43000	201.144430	949.211415	-54.864042	169.432970	1543.271983	-38.526084	94.898257	1668.523716	-111.873242	143.361703	947.812798	-3.583570	258.927153	950.610051	-106.144521	10.874382	524.598223	-53.955064	129.121212	538.821401	-219.258010	122.103850	158.142187	99.918942	169.551940	128.016956	-164.839726	153.586761	119.523649	132.527250	196.829655	80.399921	-140.883753	6.005374	75.409235	-19.069712	14.369298	64.677654	-266.160628	33.916317	1500.986783	51.942162	316.132823	1535.931887	-117.493184	-52.914183	1486.181855	-202.482180	179.425425	1552.114445	-334.931131	36.603351	1715.189027	-221.563831	91.809871	1733.351553	-186.395395
645	6.44000	202.183743	948.932781	-56.135547	169.742847	1543.093986	-40.453529	94.406296	1667.849402	-113.661573	144.817308	947.484354	-4.300212	259.550174	950.381232	-107.970888	11.438408	524.333837	-54.579633	127.954067	538.342672	-219.082661	127.205010	159.455466	99.795545	168.832987	127.597528	-163.789367	159.375901	121.376010	132.321495	196.331066	80.023611	-139.927413	11.238584	74.480354	-17.954285	12.624210	63.993748	-264.006670	35.160765	1500.711965	50.870827	315.599305	1536.255053	-120.170959	-51.984719	1486.386461	-202.283731	178.767745	1553.031338	-335.994997	37.411286	1715.263533	-224.205073	90.115803	1732.880049	-186.396295
646	6.45000	203.223056	948.654148	-57.407051	170.052723	1542.915989	-42.380975	93.914335	1667.175087	-115.449903	146.272913	947.155909	-5.016853	260.173195	950.152412	-109.797255	12.002433	524.069451	-55.204202	126.786921	537.863944	-218.907311	132.306171	160.768745	99.672147	168.114034	127.178099	-162.739007	165.165041	123.228370	132.115741	195.832477	79.647302	-138.971073	16.471794	73.551474	-16.838858	10.879122	63.309842	-261.852711	36.405213	1500.437148	49.799491	315.065787	1536.578218	-122.848734	-51.055255	1486.591066	-202.085283	178.110065	1553.948232	-337.058864	38.219220	1715.338040	-226.846314	88.421736	1732.408545	-186.397194
